<svg id="final" xmlns="http://www.w3.org/2000/svg" viewBox="0 0 428.97 429"><defs><style>.cls-1{fill:#b50074;}.cls-2{fill:#fff;}</style></defs><title>logo</title><path class="cls-1" d="M800.74,542.08,707.4,448.74l93.34-93.34a217.06,217.06,0,0,0-36.41-53.6L617.39,448.74,764.33,595.67A217,217,0,0,0,800.74,542.08Z" transform="translate(-393.5 -234.5)"/><path class="cls-1" d="M757.66,429.12a152,152,0,0,1,0,38.59l52.61,52.62A215.32,215.32,0,0,0,810,376.78Z" transform="translate(-393.5 -234.5)"/><path class="cls-1" d="M691.08,574.38A150.5,150.5,0,1,1,691,322.8l45.53-45.54c-84-63-203.79-56.38-280.22,20.06-83.77,83.77-83.77,219.59,0,303.36,76.59,76.59,196.67,83.14,280.72,19.68Z" transform="translate(-393.5 -234.5)"/><path class="cls-2" d="M614.87,498.18a49.28,49.28,0,0,1-6.47.43A50,50,0,1,1,614.79,399l39-39a99.51,99.51,0,1,0,.07,177.11Z" transform="translate(-393.5 -234.5)"/></svg>